<svg width="152" height="164" viewBox="0 0 152 164" fill="none" xmlns="http://www.w3.org/2000/svg">
<g clip-path="url(#clip0_1_168)">
<path d="M145.837 55.7177L145.155 55.4472L151.407 33.3929C152.367 30.0076 152.149 26.3105 150.802 23.1149C149.455 19.9192 147.09 17.4868 144.226 16.3527L144.225 16.3525L104.691 0.700912C101.827 -0.433197 98.6992 -0.176082 95.9954 1.41569C93.2917 3.00747 91.2337 5.80352 90.2741 9.18874L90.2739 9.18936L55.982 130.181C55.5069 131.858 55.3158 133.628 55.4196 135.391C55.5233 137.155 55.9199 138.877 56.5868 140.459C57.2536 142.042 58.1776 143.453 59.3061 144.614C60.4345 145.774 61.7452 146.66 63.1634 147.222L63.1639 147.222L102.697 162.874C105.561 164.008 108.689 163.751 111.393 162.159C114.096 160.567 116.154 157.771 117.114 154.386L140.706 71.147L141.387 71.4167L145.837 55.7177Z" fill="#3F3D56"/>
<path d="M143.718 19.8467L138.558 17.8035C138.6 18.5851 138.48 19.367 138.206 20.0804C137.933 20.7938 137.515 21.4168 136.99 21.8944C136.464 22.372 135.848 22.6897 135.194 22.8194C134.541 22.949 133.87 22.8868 133.242 22.6381L110.594 13.6711C109.966 13.4221 109.399 12.9943 108.944 12.4255C108.489 11.8567 108.159 11.1642 107.983 10.4091C107.807 9.65399 107.791 8.8594 107.937 8.09531C108.082 7.33122 108.384 6.62109 108.816 6.02745L103.996 4.11909C101.857 3.27222 99.5213 3.46432 97.5022 4.65313C95.483 5.84194 93.9461 7.93008 93.2296 10.4582L58.9867 131.273C58.2702 133.801 58.4327 136.562 59.4385 138.948C60.4444 141.335 62.2111 143.151 64.35 143.998L104.073 159.726C106.212 160.573 108.548 160.381 110.568 159.192C112.587 158.003 114.124 155.915 114.84 153.387L149.082 32.5722C149.799 30.0441 149.636 27.283 148.63 24.8965C147.624 22.51 145.857 20.6936 143.718 19.8467L143.718 19.8467Z" fill="white"/>
<path d="M133.784 60.3787L91.392 43.5941C91.184 43.5114 91.0122 43.3346 90.9143 43.1024C90.8164 42.8701 90.8005 42.6015 90.87 42.3554L94.3927 29.9261C94.4627 29.6802 94.6123 29.4771 94.8088 29.3614C95.0053 29.2458 95.2325 29.2269 95.4408 29.3091L137.833 46.0938C138.041 46.1765 138.213 46.3533 138.311 46.5856C138.409 46.8178 138.425 47.0864 138.355 47.3325L134.833 59.7614C134.763 60.0073 134.613 60.2104 134.417 60.3261C134.22 60.4417 133.993 60.4606 133.785 60.3785L133.784 60.3787ZM95.3355 29.6806C95.2106 29.6314 95.0742 29.6427 94.9563 29.7121C94.8385 29.7815 94.7487 29.9034 94.7067 30.0509L91.184 42.4799C91.1423 42.6275 91.1519 42.7887 91.2106 42.928C91.2694 43.0673 91.3725 43.1734 91.4973 43.223L133.89 60.0077C134.015 60.057 134.151 60.0457 134.269 59.9763C134.387 59.9068 134.477 59.785 134.518 59.6374L138.042 47.2091C138.083 47.0615 138.074 46.9003 138.015 46.761C137.956 46.6217 137.853 46.5156 137.728 46.466L95.3355 29.6806Z" fill="#3F3D56"/>
<path d="M119.847 109.556L77.4541 92.7712C77.246 92.6886 77.0742 92.5117 76.9764 92.2795C76.8785 92.0473 76.8626 91.7786 76.932 91.5326L83.4526 68.5263C83.5226 68.2804 83.6722 68.0774 83.8687 67.9617C84.0652 67.846 84.2924 67.8272 84.5007 67.9093L126.893 84.6934C127.101 84.7761 127.273 84.953 127.371 85.1852C127.469 85.4174 127.485 85.686 127.415 85.9321L120.894 108.939C120.824 109.185 120.675 109.388 120.478 109.503C120.282 109.619 120.055 109.638 119.847 109.556ZM84.3954 68.2803C84.2705 68.231 84.1341 68.2423 84.0162 68.3117C83.8984 68.3811 83.8086 68.503 83.7666 68.6505L77.2461 91.6568C77.2044 91.8044 77.2139 91.9656 77.2727 92.1049C77.3314 92.2442 77.4345 92.3503 77.5594 92.3999L119.952 109.185C120.077 109.234 120.213 109.223 120.331 109.153C120.449 109.084 120.539 108.962 120.581 108.814L127.102 85.8077C127.143 85.6601 127.134 85.4989 127.075 85.3596C127.016 85.2202 126.913 85.1142 126.788 85.0646L84.3954 68.2803Z" fill="#3F3D56"/>
<path d="M128 79.5542L109.159 72.0934C108.951 72.0107 108.78 71.8338 108.682 71.6016C108.584 71.3694 108.568 71.1008 108.637 70.8547L112.16 58.4257C112.23 58.1798 112.38 57.9768 112.576 57.8611C112.773 57.7454 113 57.7266 113.208 57.8087L132.049 65.2693C132.257 65.352 132.429 65.5288 132.527 65.7611C132.625 65.9933 132.641 66.2619 132.571 66.508L129.049 78.9369C128.979 79.1831 128.829 79.3864 128.632 79.5021C128.436 79.6178 128.208 79.6365 128 79.5542ZM113.103 58.1807C112.978 58.1314 112.842 58.1427 112.724 58.2122C112.606 58.2816 112.516 58.4034 112.474 58.551L108.952 70.9799C108.91 71.1276 108.919 71.2888 108.978 71.4281C109.037 71.5674 109.14 71.6735 109.265 71.7231L128.106 79.1828C128.231 79.2321 128.367 79.2208 128.485 79.1513C128.603 79.0819 128.693 78.9601 128.735 78.8125L132.257 66.3836C132.299 66.2359 132.289 66.0747 132.231 65.9354C132.172 65.7961 132.069 65.69 131.944 65.6404L113.103 58.1807Z" fill="#E6E6E6"/>
<path d="M87.7746 130.294L68.9341 122.834C68.7261 122.752 68.5543 122.575 68.4564 122.342C68.3585 122.11 68.3426 121.842 68.4121 121.596L74.9853 98.4033C75.0553 98.1574 75.2049 97.9544 75.4014 97.8387C75.5978 97.723 75.8251 97.7042 76.0333 97.7863L94.8742 105.246C95.0822 105.329 95.254 105.506 95.3519 105.738C95.4498 105.97 95.4657 106.239 95.3962 106.485L88.8226 129.677C88.7527 129.923 88.603 130.126 88.4066 130.242C88.2101 130.357 87.9828 130.376 87.7746 130.294ZM75.9275 98.1572C75.8026 98.108 75.6662 98.1193 75.5483 98.1887C75.4305 98.2581 75.3407 98.38 75.2988 98.5275L68.7254 121.72C68.6837 121.867 68.6933 122.029 68.752 122.168C68.8107 122.307 68.9138 122.413 69.0387 122.463L87.8799 129.923C88.0048 129.972 88.1412 129.961 88.259 129.891C88.3769 129.822 88.4667 129.7 88.5086 129.553L95.0818 106.36C95.1235 106.213 95.1139 106.052 95.0552 105.912C94.9965 105.773 94.8934 105.667 94.7685 105.617L75.9275 98.1572Z" fill="#E6E6E6"/>
<path d="M111.012 139.495L92.1708 132.035C91.9627 131.952 91.7909 131.775 91.693 131.543C91.5952 131.311 91.5792 131.042 91.6487 130.796L98.2219 107.604C98.2919 107.358 98.4415 107.155 98.638 107.039C98.8345 106.923 99.0618 106.905 99.27 106.987L118.111 114.447C118.319 114.529 118.491 114.706 118.589 114.938C118.687 115.171 118.703 115.439 118.633 115.685L112.06 138.877C111.99 139.123 111.84 139.326 111.644 139.442C111.448 139.558 111.22 139.577 111.012 139.495ZM99.1649 107.358C99.04 107.309 98.9036 107.32 98.7857 107.389C98.6678 107.459 98.5781 107.581 98.5361 107.728L91.9627 130.92C91.921 131.068 91.9306 131.229 91.9894 131.368C92.0481 131.508 92.1512 131.614 92.276 131.663L111.117 139.124C111.242 139.173 111.379 139.162 111.496 139.092C111.614 139.023 111.704 138.901 111.746 138.753L118.319 115.561C118.361 115.413 118.351 115.252 118.293 115.113C118.234 114.974 118.131 114.868 118.006 114.818L99.1649 107.358Z" fill="#E6E6E6"/>
<path d="M88.4637 82.5286C90.3263 82.5286 91.8363 80.7439 91.8363 78.5424C91.8363 76.341 90.3263 74.5563 88.4637 74.5563C86.6011 74.5563 85.0911 76.341 85.0911 78.5424C85.0911 80.7439 86.6011 82.5286 88.4637 82.5286Z" fill="#1D8C26"/>
<path d="M96.5628 78.9469C96.4214 78.891 96.267 78.9036 96.1336 78.9822C96.0002 79.0608 95.8986 79.1988 95.8512 79.3658C95.8039 79.5329 95.8146 79.7154 95.8811 79.8731C95.9475 80.0308 96.0643 80.1509 96.2057 80.2068L121.332 90.155C121.402 90.1827 121.476 90.1939 121.549 90.1878C121.623 90.1818 121.695 90.1586 121.761 90.1197C121.827 90.0808 121.886 90.0269 121.934 89.9611C121.983 89.8953 122.02 89.8188 122.043 89.7361C122.067 89.6534 122.076 89.566 122.071 89.479C122.066 89.3919 122.046 89.3069 122.013 89.2288C121.981 89.1507 121.935 89.0811 121.879 89.0238C121.824 88.9665 121.759 88.9228 121.689 88.8951L96.5628 78.9469Z" fill="#E6E6E6"/>
<path d="M95.4921 82.7265C95.4221 82.6988 95.3482 82.6876 95.2746 82.6937C95.2009 82.6997 95.129 82.7229 95.0629 82.7618C94.9969 82.8007 94.9379 82.8546 94.8895 82.9204C94.841 82.9862 94.804 83.0627 94.7806 83.1454C94.7571 83.2281 94.7477 83.3155 94.7528 83.4025C94.7579 83.4896 94.7775 83.5746 94.8104 83.6527C94.8433 83.7307 94.8889 83.8004 94.9446 83.8577C95.0003 83.9149 95.065 83.9587 95.135 83.9864L105.947 88.2673C106.017 88.295 106.091 88.3061 106.164 88.3001C106.238 88.294 106.31 88.2709 106.376 88.232C106.442 88.1931 106.501 88.1392 106.549 88.0733C106.598 88.0075 106.635 87.9311 106.658 87.8483C106.682 87.7656 106.691 87.6782 106.686 87.5912C106.681 87.5042 106.661 87.4192 106.629 87.3411C106.596 87.263 106.55 87.1933 106.494 87.136C106.439 87.0788 106.374 87.035 106.304 87.0073L95.4921 82.7265Z" fill="#E6E6E6"/>
<path d="M83.9411 84.8737C83.5356 84.7132 83.1257 84.8652 83.0273 85.2134C82.9288 85.5616 83.1787 85.974 83.5841 86.1345L118.25 99.8601C118.656 100.021 119.066 99.8686 119.164 99.5204C119.263 99.1721 119.013 98.7598 118.607 98.5993L83.9411 84.8737Z" fill="#E6E6E6"/>
<path d="M82.8699 88.6535C82.4644 88.4929 82.0545 88.645 81.9561 88.9932C81.8576 89.3414 82.1075 89.7537 82.5129 89.9142L117.179 103.64C117.585 103.8 117.995 103.648 118.093 103.3C118.191 102.952 117.942 102.54 117.536 102.379L82.8699 88.6535Z" fill="#E6E6E6"/>
<path d="M100.139 42.569C102.001 42.569 103.511 40.7844 103.511 38.5829C103.511 36.3814 102.001 34.5967 100.139 34.5967C98.2761 34.5967 96.7661 36.3814 96.7661 38.5829C96.7661 40.7844 98.2761 42.569 100.139 42.569Z" fill="#1D8C26"/>
<path d="M108.238 38.9872C108.168 38.9594 108.094 38.9483 108.021 38.9543C107.947 38.9604 107.875 38.9835 107.809 39.0224C107.743 39.0613 107.684 39.1152 107.635 39.1811C107.587 39.2469 107.55 39.3233 107.527 39.4061C107.503 39.4888 107.494 39.5762 107.499 39.6632C107.504 39.7502 107.524 39.8352 107.556 39.9133C107.589 39.9914 107.635 40.0611 107.691 40.1184C107.746 40.1756 107.811 40.2194 107.881 40.2471L133.007 50.1952C133.077 50.223 133.151 50.2341 133.225 50.2281C133.298 50.222 133.37 50.1989 133.436 50.16C133.502 50.1211 133.561 50.0672 133.61 50.0013C133.658 49.9355 133.695 49.8591 133.719 49.7763C133.742 49.6936 133.752 49.6062 133.746 49.5192C133.741 49.4322 133.722 49.3472 133.689 49.2691C133.656 49.191 133.61 49.1213 133.555 49.064C133.499 49.0068 133.434 48.963 133.364 48.9353L108.238 38.9872Z" fill="#E6E6E6"/>
<path d="M107.167 42.7669C107.097 42.7392 107.023 42.7281 106.949 42.7341C106.876 42.7402 106.804 42.7633 106.738 42.8022C106.672 42.8411 106.613 42.895 106.564 42.9608C106.516 43.0266 106.479 43.1031 106.455 43.1858C106.432 43.2686 106.423 43.3559 106.428 43.443C106.433 43.53 106.452 43.615 106.485 43.6931C106.518 43.7712 106.564 43.8409 106.619 43.8981C106.675 43.9554 106.74 43.9991 106.81 44.0268L117.622 48.3077C117.692 48.3354 117.766 48.3466 117.839 48.3405C117.913 48.3344 117.985 48.3113 118.051 48.2724C118.117 48.2335 118.176 48.1796 118.224 48.1138C118.273 48.048 118.31 47.9715 118.333 47.8888C118.357 47.806 118.366 47.7187 118.361 47.6316C118.356 47.5446 118.336 47.4596 118.303 47.3815C118.27 47.3034 118.225 47.2337 118.169 47.1765C118.113 47.1192 118.049 47.0755 117.979 47.0478L107.167 42.7669Z" fill="#E6E6E6"/>
<path d="M104.746 70.3493L87.0713 63.3514L93.6442 56.483C93.762 56.3598 93.9051 56.2755 94.0592 56.2385C94.2133 56.2014 94.373 56.213 94.5221 56.272C94.6712 56.3311 94.8045 56.4355 94.9087 56.5747C95.0128 56.714 95.0842 56.8832 95.1154 57.0654L95.8613 61.4065L100.636 56.4169C100.783 56.2628 100.962 56.1573 101.155 56.111C101.348 56.0647 101.548 56.0793 101.735 56.1532C101.921 56.2271 102.088 56.3578 102.219 56.5321C102.349 56.7064 102.438 56.9182 102.477 57.1463L104.746 70.3493ZM87.7203 63.1955L104.307 69.7629L102.153 57.225C102.125 57.0644 102.062 56.9152 101.97 56.7924C101.878 56.6696 101.761 56.5775 101.629 56.5255C101.498 56.4734 101.357 56.4631 101.221 56.4957C101.085 56.5284 100.959 56.6027 100.855 56.7112L95.6509 62.149L94.7908 57.1435C94.7711 57.0287 94.7262 56.9221 94.6606 56.8343C94.5949 56.7465 94.5109 56.6807 94.4169 56.6435C94.323 56.6063 94.2224 56.599 94.1253 56.6223C94.0281 56.6457 93.9379 56.6988 93.8637 56.7764L87.7203 63.1955Z" fill="#E6E6E6"/>
<path d="M104.763 70.3536L85.9222 62.8938C85.7141 62.8111 85.5423 62.6343 85.4444 62.4021C85.3466 62.1698 85.3306 61.9012 85.4001 61.6551L88.9227 49.2262C88.9926 48.9803 89.1423 48.7772 89.3388 48.6616C89.5352 48.5459 89.7625 48.5271 89.9707 48.6092L108.812 56.0691C109.02 56.1518 109.192 56.3287 109.29 56.5609C109.388 56.7931 109.403 57.0618 109.334 57.3078L105.811 69.7366C105.741 69.9825 105.592 70.1855 105.395 70.3012C105.199 70.4169 104.971 70.4357 104.763 70.3536ZM89.8656 48.9801C89.7407 48.9308 89.6043 48.9422 89.4865 49.0116C89.3686 49.081 89.2788 49.2029 89.2369 49.3504L85.7143 61.7794C85.6726 61.927 85.6822 62.0882 85.7409 62.2275C85.7997 62.3668 85.9028 62.4729 86.0276 62.5225L104.869 69.9824C104.994 70.0317 105.13 70.0204 105.248 69.951C105.366 69.8816 105.456 69.7597 105.498 69.6122L109.02 57.1832C109.062 57.0356 109.052 56.8744 108.994 56.7351C108.935 56.5957 108.832 56.4897 108.707 56.4401L89.8656 48.9801Z" fill="#E6E6E6"/>
<path d="M78.6918 104.158C78.6218 104.13 78.5478 104.119 78.4741 104.125C78.4004 104.131 78.3284 104.154 78.2623 104.193C78.1961 104.232 78.1371 104.286 78.0886 104.352C78.0401 104.418 78.003 104.494 77.9796 104.577C77.9561 104.66 77.9467 104.747 77.9518 104.834C77.957 104.921 77.9766 105.006 78.0096 105.085C78.0426 105.163 78.0882 105.232 78.144 105.29C78.1998 105.347 78.2646 105.391 78.3347 105.418L89.1465 109.699C89.2878 109.755 89.442 109.742 89.5753 109.663C89.7086 109.585 89.8101 109.447 89.8574 109.28C89.9047 109.113 89.894 108.931 89.8277 108.773C89.7614 108.615 89.6448 108.495 89.5036 108.439L78.6918 104.158Z" fill="#E6E6E6"/>
<path d="M77.6398 107.87C77.5698 107.842 77.4958 107.831 77.4221 107.837C77.3484 107.843 77.2764 107.866 77.2103 107.905C77.1441 107.943 77.0851 107.997 77.0366 108.063C76.9881 108.129 76.951 108.206 76.9276 108.288C76.9041 108.371 76.8947 108.459 76.8998 108.546C76.905 108.633 76.9246 108.718 76.9576 108.796C76.9906 108.874 77.0363 108.944 77.092 109.001C77.1478 109.058 77.2126 109.102 77.2827 109.13L88.0947 113.411C88.2359 113.467 88.39 113.454 88.5231 113.375C88.6562 113.296 88.7575 113.159 88.8048 112.992C88.852 112.825 88.8414 112.643 88.7753 112.485C88.7091 112.328 88.5928 112.208 88.4518 112.151L77.6398 107.87Z" fill="#E6E6E6"/>
<path d="M108.353 133.122C108.494 133.178 108.648 133.165 108.782 133.087C108.915 133.008 109.016 132.87 109.064 132.703C109.111 132.536 109.1 132.354 109.034 132.196C108.968 132.039 108.851 131.919 108.71 131.862L97.8981 127.582C97.7568 127.526 97.6025 127.539 97.4692 127.617C97.3359 127.696 97.2345 127.834 97.1872 128.001C97.1399 128.168 97.1506 128.35 97.2169 128.508C97.2832 128.665 97.3998 128.785 97.5409 128.841L108.353 133.122Z" fill="#E6E6E6"/>
<path d="M109.405 129.411C109.475 129.439 109.549 129.45 109.622 129.444C109.696 129.438 109.768 129.415 109.834 129.376C109.9 129.337 109.959 129.283 110.008 129.217C110.056 129.151 110.094 129.075 110.117 128.992C110.14 128.909 110.15 128.822 110.145 128.735C110.14 128.648 110.12 128.563 110.087 128.484C110.054 128.406 110.008 128.337 109.953 128.279C109.897 128.222 109.832 128.178 109.762 128.151L98.95 123.87C98.88 123.842 98.806 123.831 98.7323 123.837C98.6586 123.843 98.5866 123.866 98.5205 123.905C98.4543 123.944 98.3953 123.998 98.3468 124.063C98.2983 124.129 98.2613 124.206 98.2378 124.289C98.2143 124.371 98.2049 124.459 98.21 124.546C98.2152 124.633 98.2348 124.718 98.2678 124.796C98.3008 124.874 98.3465 124.944 98.4022 125.001C98.458 125.059 98.5228 125.102 98.5929 125.13L109.405 129.411Z" fill="#E6E6E6"/>
<path d="M126.291 69.9604C126.361 69.9882 126.435 69.9995 126.509 69.9935C126.582 69.9875 126.654 69.9644 126.72 69.9256C126.787 69.8867 126.846 69.8328 126.894 69.7669C126.943 69.701 126.98 69.6245 127.003 69.5417C127.027 69.4589 127.036 69.3715 127.031 69.2844C127.026 69.1973 127.006 69.1122 126.973 69.0341C126.94 68.9559 126.894 68.8863 126.839 68.829C126.783 68.7718 126.718 68.7281 126.648 68.7004L115.836 64.4196C115.766 64.3917 115.692 64.3805 115.619 64.3865C115.545 64.3924 115.473 64.4155 115.407 64.4544C115.341 64.4933 115.281 64.5472 115.233 64.6131C115.184 64.6789 115.147 64.7554 115.124 64.8382C115.1 64.921 115.091 65.0085 115.096 65.0956C115.101 65.1827 115.121 65.2677 115.154 65.3459C115.187 65.424 115.233 65.4937 115.288 65.5509C115.344 65.6082 115.409 65.6519 115.479 65.6795L126.291 69.9604Z" fill="#E6E6E6"/>
<path d="M125.393 72.9329C125.463 72.9607 125.537 72.972 125.61 72.966C125.684 72.96 125.756 72.937 125.822 72.8981C125.888 72.8592 125.947 72.8053 125.996 72.7394C126.044 72.6736 126.082 72.597 126.105 72.5142C126.128 72.4314 126.138 72.344 126.133 72.2569C126.128 72.1698 126.108 72.0847 126.075 72.0066C126.042 71.9285 125.996 71.8588 125.94 71.8015C125.885 71.7443 125.82 71.7006 125.75 71.673L114.938 67.3921C114.868 67.3643 114.794 67.353 114.72 67.359C114.647 67.365 114.575 67.388 114.508 67.4269C114.442 67.4658 114.383 67.5197 114.335 67.5856C114.286 67.6514 114.249 67.728 114.226 67.8107C114.202 67.8935 114.193 67.981 114.198 68.0681C114.203 68.1552 114.223 68.2403 114.256 68.3184C114.289 68.3965 114.334 68.4662 114.39 68.5235C114.446 68.5807 114.511 68.6244 114.581 68.652L125.393 72.9329Z" fill="#E6E6E6"/>
<path d="M34.8484 65.6137C38.0064 65.6137 40.5664 62.5879 40.5664 58.8555C40.5664 55.123 38.0064 52.0972 34.8484 52.0972C31.6905 52.0972 29.1305 55.123 29.1305 58.8555C29.1305 62.5879 31.6905 65.6137 34.8484 65.6137Z" fill="#9F616A"/>
<path d="M31.5432 59.6916C31.9965 59.6595 32.4391 59.8402 32.8893 59.9113C34.4997 60.164 36.1749 58.7828 36.5306 56.9093C36.5591 56.6598 36.622 56.4175 36.7169 56.1921C36.9648 55.7137 37.5292 55.6226 37.9945 55.7326C38.4597 55.8426 38.9009 56.0999 39.3748 56.1294C40.1065 56.1749 40.8089 55.6424 41.1989 54.9092C41.5674 54.1529 41.7241 53.2782 41.6466 52.4102L41.2957 52.8452C41.1532 52.4889 41.0982 52.0923 41.1369 51.7008C40.951 51.6423 40.7555 51.6412 40.5692 51.6975C40.3828 51.7539 40.2118 51.8659 40.0725 52.0227C39.7632 52.0616 39.9967 51.3448 39.7672 51.097C39.6554 51.0158 39.5222 50.9864 39.3932 51.0144C38.7351 51.0218 38.2029 50.4271 37.6844 49.9483C36.7861 49.1205 35.7356 48.5541 34.6178 48.295C33.8748 48.1236 33.0847 48.0962 32.3802 48.4223C31.8114 48.7241 31.298 49.1545 30.869 49.6893C29.7659 50.942 28.789 52.4161 28.3302 54.1417C27.9571 55.5551 27.9465 57.0674 28.2998 58.4879C28.4847 59.2255 29.0421 61.752 29.858 61.8108C30.8825 61.8853 30.2672 59.7816 31.5432 59.6916Z" fill="#2F2E41"/>
<path d="M23.6252 112.965C23.9423 112.708 24.2079 112.372 24.4032 111.981C24.5986 111.589 24.7189 111.152 24.7558 110.7C24.7927 110.247 24.7452 109.791 24.6167 109.363C24.4883 108.934 24.2819 108.545 24.0122 108.221L25.0323 81.3052L19.8384 81.9942L20.1402 108.322C19.7098 108.894 19.4718 109.632 19.4713 110.397C19.4708 111.163 19.7078 111.901 20.1374 112.474C20.567 113.046 21.1594 113.413 21.8022 113.503C22.445 113.594 23.0937 113.403 23.6252 112.966V112.965Z" fill="#A0616A"/>
<path d="M33.1003 158.527L36.0565 159.141L38.9782 145.956L35.105 145.049L33.1003 158.527Z" fill="#A0616A"/>
<path d="M41.2544 163.575L31.9628 161.635L32.597 157.392L38.2987 158.583C39.2508 158.782 40.0971 159.419 40.6514 160.356C41.2057 161.292 41.4226 162.45 41.2544 163.575Z" fill="#2F2E41"/>
<path d="M24.9865 160.276H27.9878L29.4156 146.593H24.986L24.9865 160.276Z" fill="#A0616A"/>
<path d="M33.7736 163.57H24.3405V159.262H30.1291C31.0957 159.262 32.0227 159.716 32.7062 160.524C33.3897 161.332 33.7736 162.428 33.7736 163.57Z" fill="#2F2E41"/>
<path d="M37.5093 155.372C37.4624 155.372 37.4156 155.368 37.3691 155.362L33.8363 155.018C33.5216 154.975 33.2345 154.785 33.0381 154.491C32.8417 154.197 32.7522 153.823 32.7891 153.451C32.7915 153.427 32.7943 153.404 32.7976 153.381L36.3057 132.928L34.1015 119.191C34.0836 119.079 34.0322 118.979 33.9566 118.909C33.881 118.838 33.7865 118.803 33.6904 118.808C33.5943 118.814 33.5032 118.861 33.4339 118.94C33.3646 119.018 33.3218 119.124 33.3134 119.237L30.0675 154.142C30.0372 154.51 29.8873 154.85 29.6493 155.089C29.4114 155.329 29.104 155.45 28.792 155.426L25.4638 155.28C25.1722 155.255 24.8982 155.106 24.6936 154.859C24.489 154.612 24.3679 154.285 24.3533 153.94L24.6192 111.761L41.8745 109.212L43.0799 131.215L43.0751 131.238L38.6703 154.293C38.6069 154.6 38.458 154.874 38.2475 155.069C38.037 155.265 37.777 155.371 37.5093 155.372Z" fill="#2F2E41"/>
<path d="M35.9737 114.971C35.033 114.977 34.1104 114.666 33.315 114.072C30.4023 111.92 27.0941 112.775 25.3812 113.477C25.2112 113.548 25.03 113.572 24.8511 113.548C24.6721 113.524 24.5001 113.452 24.3479 113.338C24.1975 113.227 24.0703 113.076 23.976 112.898C23.8817 112.72 23.8227 112.519 23.8034 112.311L20.6894 79.4312C20.1673 73.9225 22.9749 68.7433 27.365 67.1165C27.5299 67.0554 27.6975 66.9974 27.868 66.9426C29.2341 66.5049 30.6648 66.4263 32.0595 66.7124C33.4541 66.9986 34.7787 67.6424 35.9401 68.5987C37.1232 69.5654 38.1127 70.8267 38.839 72.2941C39.5652 73.7614 40.0106 75.399 40.1437 77.0916L42.7664 110.191C42.7842 110.405 42.7595 110.621 42.6945 110.823C42.6294 111.024 42.5257 111.204 42.3915 111.35C41.4723 112.355 38.8045 114.97 35.9737 114.971Z" fill="#1D8C26"/>
<path d="M26.4892 86.4816L19.4621 85.5686C19.2621 85.5426 19.0693 85.466 18.8967 85.344C18.724 85.222 18.5757 85.0574 18.4617 84.8615C18.3478 84.6656 18.2709 84.443 18.2362 84.2088C18.2016 83.9746 18.2101 83.7344 18.2612 83.5044L20.0498 75.4468C20.1038 74.8465 20.2574 74.2646 20.5017 73.7344C20.7461 73.2043 21.0764 72.7362 21.4739 72.3571C21.8713 71.9779 22.3281 71.695 22.8182 71.5246C23.3082 71.3542 23.8218 71.2996 24.3297 71.3639C24.8375 71.4282 25.3297 71.6102 25.778 71.8995C26.2264 72.1887 26.6221 72.5796 26.9426 73.0497C27.263 73.5198 27.502 74.0599 27.6457 74.6392C27.7895 75.2185 27.8353 75.8256 27.7804 76.4259C27.7788 76.4432 27.7772 76.4605 27.7754 76.4778L28.041 84.7752C28.0485 85.0127 28.0126 85.2494 27.9358 85.4691C27.8589 85.6888 27.7429 85.8864 27.5957 86.0483C27.4484 86.2103 27.2734 86.3328 27.0824 86.4076C26.8915 86.4823 26.6892 86.5076 26.4892 86.4816Z" fill="#1D8C26"/>
<path d="M42.7372 111.813C43.0258 111.512 43.2552 111.141 43.4093 110.725C43.5633 110.308 43.6383 109.857 43.6288 109.403C43.6193 108.948 43.5257 108.502 43.3545 108.095C43.1832 107.688 42.9386 107.33 42.6378 107.047L40.9063 80.1828L35.8169 81.537L38.8045 107.699C38.4357 108.328 38.2748 109.095 38.3523 109.854C38.4299 110.614 38.7404 111.313 39.2252 111.82C39.7099 112.327 40.3352 112.607 40.9825 112.605C41.6298 112.604 42.2542 112.322 42.7373 111.813L42.7372 111.813Z" fill="#A0616A"/>
<path d="M33.8654 84.7928C33.718 84.6308 33.6019 84.4332 33.5251 84.2133C33.4483 83.9934 33.4125 83.7566 33.4203 83.5189L33.6858 75.2215C33.5764 74.0144 33.8757 72.8052 34.5182 71.858C35.1607 70.9109 36.0943 70.3027 37.1149 70.1665C38.1356 70.0303 39.1604 70.3771 39.9654 71.131C40.7705 71.885 41.2903 72.9849 41.4114 74.1905L43.2001 82.2481C43.2511 82.4781 43.2596 82.7183 43.225 82.9525C43.1904 83.1867 43.1135 83.4093 42.9995 83.6052C42.8855 83.8011 42.7372 83.9656 42.5646 84.0877C42.392 84.2097 42.1991 84.2863 41.9992 84.3123L34.972 85.2253C34.7721 85.2514 34.5697 85.2262 34.3787 85.1514C34.1877 85.0767 34.0126 84.954 33.8654 84.7919V84.7928Z" fill="#1D8C26"/>
<path d="M132.614 163.575H0V164H132.614V163.575Z" fill="#CACACA"/>
</g>
<defs>
<clipPath id="clip0_1_168">
<rect width="152" height="164" fill="white"/>
</clipPath>
</defs>
</svg>
